<svg width="56" height="169" viewBox="0 0 56 169" fill="none" xmlns="http://www.w3.org/2000/svg">
<path fill-rule="evenodd" clip-rule="evenodd" d="M44.7256 167.017C-11.6482 75.4139 20.8758 18.1275 45.3893 0.691954C46.5145 -0.108304 48.0753 0.155054 48.8756 1.28019C49.6759 2.40532 49.4125 3.96617 48.2874 4.76644C26.3003 20.405 -6.26994 74.6133 48.9838 164.396C49.7075 165.572 49.3409 167.112 48.165 167.836C46.9891 168.559 45.4493 168.193 44.7256 167.017Z" fill="#12E3AD"/>
<path fill-rule="evenodd" clip-rule="evenodd" d="M0.449546 141.688C0.471827 140.307 1.60903 139.206 2.98956 139.229C9.66245 139.336 25.6956 144.098 44.0426 160.554C42.7446 149.14 42.9516 131.284 50.4597 116.797C51.095 115.571 52.6038 115.093 53.8296 115.728C55.0555 116.363 55.5342 117.872 54.8989 119.098C47.1932 133.966 47.8068 153.212 49.5166 163.667C49.8037 165.423 48.7781 166.793 47.6325 167.398C46.4866 168.004 44.7763 168.079 43.4878 166.851C24.5441 148.796 8.29973 144.315 2.90888 144.228C1.52835 144.206 0.427265 143.068 0.449546 141.688Z" fill="#12E3AD"/>
</svg>
