<svg width="152" height="49" viewBox="0 0 152 49" fill="none" xmlns="http://www.w3.org/2000/svg">
<circle cx="35.3194" cy="31.2626" r="17.7374" fill="#FE3232" fill-opacity="0.7"/>
<circle cx="27.2042" cy="17.7374" r="17.7374" fill="#3293FE" fill-opacity="0.7"/>
<circle cx="17.7374" cy="31.2626" r="17.7374" fill="#FEF632" fill-opacity="0.7"/>
<path d="M67.2755 22.8306H68.8092C69.426 22.8306 69.9373 22.7494 70.343 22.5871C70.7488 22.4086 71.0977 22.1327 71.3899 21.7594L81.1037 9.46496C81.5094 8.94559 81.9314 8.58852 82.3696 8.39376C82.8241 8.18277 83.3922 8.07727 84.0738 8.07727H89.722L77.8657 22.7089C77.1678 23.6015 76.4456 24.2345 75.699 24.6078C76.2346 24.8026 76.7134 25.0785 77.1354 25.4356C77.5736 25.7764 77.9875 26.2308 78.377 26.7989L90.5984 43.2808H84.8285C84.0495 43.2808 83.4652 43.1753 83.0757 42.9643C82.7024 42.737 82.3859 42.4124 82.1262 41.9905L72.1689 28.99C71.8605 28.5518 71.5035 28.2434 71.0977 28.0649C70.692 27.8863 70.1077 27.7971 69.3448 27.7971H67.2755V43.2808H60.7266V8.07727H67.2755V22.8306Z" fill="url(#paint0_linear_91_20)"/>
<path d="M104.088 25.7764C105.289 25.7764 106.336 25.6303 107.229 25.3382C108.121 25.0298 108.86 24.5997 109.444 24.0479C110.045 23.4798 110.491 22.7981 110.783 22.0029C111.075 21.1913 111.221 20.2906 111.221 19.3005C111.221 18.3592 111.075 17.5071 110.783 16.7442C110.491 15.9814 110.053 15.3322 109.468 14.7966C108.884 14.261 108.146 13.8553 107.253 13.5793C106.36 13.2872 105.305 13.1411 104.088 13.1411H99.1946V25.7764H104.088ZM104.088 8.07727C106.441 8.07727 108.478 8.35319 110.199 8.90502C111.919 9.45685 113.339 10.2278 114.459 11.2178C115.579 12.2079 116.407 13.3927 116.942 14.7723C117.494 16.1518 117.77 17.6613 117.77 19.3005C117.77 21.0047 117.486 22.5709 116.918 23.9992C116.35 25.4112 115.498 26.6285 114.362 27.651C113.226 28.6735 111.797 29.4688 110.077 30.0368C108.373 30.6049 106.377 30.8889 104.088 30.8889H99.1946V43.2808H92.6457V8.07727H104.088Z" fill="url(#paint1_linear_91_20)"/>
<path d="M151.009 8.07727V43.2808H147.649C147.129 43.2808 146.691 43.1996 146.334 43.0373C145.993 42.8588 145.661 42.5666 145.336 42.1609L126.955 18.6919C127.053 19.7631 127.101 20.7531 127.101 21.662V43.2808H121.331V8.07727H124.764C125.04 8.07727 125.275 8.0935 125.47 8.12596C125.681 8.14219 125.86 8.19088 126.006 8.27203C126.168 8.33696 126.322 8.44245 126.468 8.58852C126.614 8.71837 126.777 8.8969 126.955 9.12412L145.409 32.6905C145.36 32.1224 145.32 31.5625 145.287 31.0107C145.255 30.4588 145.239 29.9476 145.239 29.4769V8.07727H151.009Z" fill="url(#paint2_linear_91_20)"/>
<defs>
<linearGradient id="paint0_linear_91_20" x1="62.7121" y1="25.6576" x2="151.009" y2="25.6576" gradientUnits="userSpaceOnUse">
<stop stop-color="#FEF970"/>
<stop offset="0.503125" stop-color="#70B3FE"/>
<stop offset="1" stop-color="#FF0707"/>
</linearGradient>
<linearGradient id="paint1_linear_91_20" x1="62.7121" y1="25.6576" x2="151.009" y2="25.6576" gradientUnits="userSpaceOnUse">
<stop stop-color="#FEF970"/>
<stop offset="0.503125" stop-color="#70B3FE"/>
<stop offset="1" stop-color="#FF0707"/>
</linearGradient>
<linearGradient id="paint2_linear_91_20" x1="62.7121" y1="25.6576" x2="151.009" y2="25.6576" gradientUnits="userSpaceOnUse">
<stop stop-color="#FEF970"/>
<stop offset="0.503125" stop-color="#70B3FE"/>
<stop offset="1" stop-color="#FF0707"/>
</linearGradient>
</defs>
</svg>
